<svg xmlns="http://www.w3.org/2000/svg" version="1.0" preserveAspectRatio="xMidYMid meet" viewBox="282 146 496.18 358.01">

<g transform="translate(0.000000,706.000000) scale(0.100000,-0.100000)" fill="#000000" stroke="none">
<path d="M4386 5528 c-18 -40 -72 -166 -121 -280 l-88 -208 -118 0 -118 0 -3 133 -3 132 -510 0 -510 0 -3 -130 -3 -130 -30 -17 c-62 -36 -59 49 -59 -1500 0 -1325 1 -1415 18 -1448 9 -19 28 -40 42 -47 20 -10 525 -13 2418 -13 2654 0 2438 -6 2468 65 21 50 21 2839 0 2888 -29 70 6 67 -704 67 l-638 0 -120 278 -119 277 -883 3 -883 2 -33 -72z m1862 -227 c56 -132 102 -245 102 -250 0 -8 -320 -11 -1050 -11 -730 0 -1050 3 -1050 11 0 5 46 118 102 250 l103 239 845 0 845 0 103 -239z m-3258 -156 c0 -63 -4 -105 -10 -105 -6 0 -10 42 -10 105 0 63 4 105 10 105 6 0 10 -42 10 -105z m60 0 c0 -98 -1 -105 -20 -105 -19 0 -20 7 -20 105 0 98 1 105 20 105 19 0 20 -7 20 -105z m60 0 c0 -98 -1 -105 -20 -105 -19 0 -20 7 -20 105 0 98 1 105 20 105 19 0 20 -7 20 -105z m60 0 c0 -98 -1 -105 -20 -105 -19 0 -20 7 -20 105 0 98 1 105 20 105 19 0 20 -7 20 -105z m62 0 c0 -94 -2 -100 -21 -103 -20 -3 -21 1 -21 103 0 102 1 106 21 103 19 -3 21 -9 21 -103z m60 0 c-3 -96 -5 -105 -23 -105 -18 0 -19 8 -19 105 0 102 1 105 23 105 22 0 22 -2 19 -105z m66 3 c-3 -98 -4 -103 -25 -106 -23 -3 -23 -2 -23 102 l0 106 25 0 26 0 -3 -102z m60 0 c-3 -98 -4 -103 -25 -106 -23 -3 -23 -2 -23 102 l0 106 25 0 26 0 -3 -102z m60 0 c-3 -98 -4 -103 -25 -106 -23 -3 -23 -2 -23 102 l0 106 25 0 26 0 -3 -102z m60 0 c-3 -98 -4 -103 -25 -106 -23 -3 -23 -2 -23 102 l0 106 25 0 26 0 -3 -102z m60 0 c-3 -98 -4 -103 -25 -106 -23 -3 -23 -2 -23 102 l0 106 25 0 26 0 -3 -102z m60 0 c-3 -98 -4 -103 -25 -106 -23 -3 -23 -2 -23 102 l0 106 25 0 26 0 -3 -102z m60 0 c-3 -98 -4 -103 -25 -106 -23 -3 -23 -2 -23 102 l0 106 25 0 26 0 -3 -102z m60 0 c-3 -98 -4 -103 -25 -106 -23 -3 -23 -2 -23 102 l0 106 25 0 26 0 -3 -102z m62 -3 l0 -105 -25 0 -25 0 0 105 0 105 25 0 25 0 0 -105z m40 0 c0 -87 -3 -105 -15 -105 -12 0 -15 18 -15 105 0 87 3 105 15 105 12 0 15 -18 15 -105z m3824 -187 c14 -20 16 -172 16 -1428 0 -1256 -2 -1408 -16 -1428 l-15 -22 -2389 0 -2389 0 -15 22 c-14 20 -16 172 -16 1428 0 1256 2 1408 16 1428 l15 22 2389 0 2389 0 15 -22z"/>
<path d="M4650 5398 c-15 -36 -60 -224 -60 -252 0 -19 5 -26 20 -26 19 0 36 43 55 140 14 68 21 64 55 -29 56 -157 75 -151 117 35 23 101 28 141 20 146 -23 14 -47 -28 -64 -110 -9 -45 -20 -82 -23 -82 -3 0 -21 44 -40 97 -37 103 -60 127 -80 81z"/>
<path d="M4942 5408 c-5 -7 -20 -57 -33 -110 l-23 -98 20 -27 c46 -62 128 -67 183 -12 23 23 34 49 51 126 12 54 23 103 25 110 5 16 -25 26 -40 13 -7 -6 -20 -50 -30 -99 -22 -116 -43 -151 -90 -151 -25 0 -39 6 -50 23 -14 22 -13 32 10 121 14 54 23 102 20 107 -9 13 -31 11 -43 -3z"/>
<path d="M5243 5408 c-13 -17 -73 -260 -67 -270 9 -15 43 -8 48 10 12 39 56 242 56 256 0 19 -24 21 -37 4z"/>
<path d="M5367 5413 c-2 -4 -19 -68 -37 -141 -23 -94 -30 -136 -22 -144 22 -22 40 2 58 76 10 42 20 76 24 76 3 0 13 -33 21 -72 19 -99 34 -100 95 -9 26 39 49 69 51 67 3 -2 -1 -30 -7 -61 -13 -61 -9 -85 14 -85 16 0 21 13 60 180 18 77 21 107 13 112 -21 13 -31 3 -94 -93 -99 -151 -87 -148 -107 -34 -9 55 -21 107 -25 115 -9 17 -37 25 -44 13z"/>
<path d="M5780 5409 c-91 -38 -138 -167 -90 -246 52 -86 210 -24 210 83 0 36 -4 38 -65 34 -32 -2 -55 -16 -55 -32 0 -6 16 -8 35 -6 29 3 35 1 35 -14 0 -48 -87 -79 -116 -40 -31 40 -9 133 38 166 27 19 78 21 78 3 0 -19 20 -36 36 -30 18 7 18 57 0 72 -20 17 -77 22 -106 10z"/>
<path d="M5169 4860 c-593 -61 -1070 -498 -1186 -1088 -23 -119 -23 -365 1 -485 35 -180 107 -355 209 -507 27 -41 102 -127 166 -191 201 -202 404 -311 684 -370 143 -30 371 -30 514 0 463 97 819 396 992 833 248 629 -40 1368 -654 1676 -206 103 -497 156 -726 132z m356 -76 c247 -40 489 -167 676 -353 347 -347 464 -852 306 -1316 -106 -310 -344 -579 -645 -729 -344 -172 -780 -172 -1124 0 -186 93 -375 255 -485 416 -104 151 -185 352 -215 532 -18 106 -14 314 7 426 74 394 331 734 690 913 244 121 503 158 790 111z"/>
<path d="M5173 4640 c-164 -21 -331 -80 -471 -166 -113 -69 -292 -253 -359 -368 -221 -375 -212 -823 22 -1188 67 -104 249 -280 352 -341 403 -236 875 -215 1244 54 88 64 218 202 275 290 281 434 231 998 -123 1370 -168 177 -361 285 -593 333 -98 20 -257 27 -347 16z m409 -133 c405 -107 716 -439 794 -845 18 -93 18 -172 -1 -292 -63 -421 -366 -765 -777 -884 -494 -143 -1025 86 -1263 545 -105 204 -149 454 -110 638 81 385 354 693 722 817 130 44 203 53 378 50 133 -3 176 -8 257 -29z"/>
<path d="M5175 4271 c-89 -22 -171 -96 -199 -179 -23 -65 -19 -97 4 -38 46 118 118 179 247 210 55 14 56 14 18 14 -22 0 -53 -3 -70 -7z"/>
<path d="M5213 4219 c-66 -25 -150 -101 -186 -168 -32 -57 -57 -164 -55 -231 0 -26 3 -34 5 -20 30 174 63 250 138 326 27 27 79 64 114 82 72 36 63 41 -16 11z"/>
<path d="M5471 4134 c0 -11 3 -14 6 -6 3 7 2 16 -1 19 -3 4 -6 -2 -5 -13z"/>
<path d="M5483 4025 c-2 -188 -73 -285 -281 -387 -68 -33 -121 -62 -118 -65 3 -3 12 -1 19 6 8 6 46 22 84 35 89 30 128 50 180 93 87 70 134 171 132 282 -2 108 -15 138 -16 36z"/>
<path d="M5442 4070 c0 -19 2 -27 5 -17 2 9 2 25 0 35 -3 9 -5 1 -5 -18z"/>
<path d="M5431 4017 c-2 -30 -50 -116 -88 -158 -20 -22 -67 -58 -105 -80 -37 -21 -101 -58 -140 -81 -95 -54 -184 -140 -214 -203 -19 -40 -24 -65 -22 -125 l1 -75 6 75 c12 136 83 217 293 336 67 38 143 88 169 112 55 49 113 156 106 193 -3 16 -5 18 -6 6z"/>
<path d="M5500 3614 c-25 -8 -85 -19 -135 -23 l-90 -8 75 -1 c41 -1 106 5 145 13 93 20 109 19 140 -8 38 -32 43 -88 16 -175 -26 -87 -26 -104 0 -205 12 -45 25 -113 29 -152 7 -67 7 -68 9 -18 0 28 -8 102 -18 165 -20 114 -19 129 8 218 16 50 14 117 -4 155 -27 55 -86 68 -175 39z"/>
<path d="M4901 3359 c-2 -64 27 -133 104 -249 76 -115 115 -208 115 -275 0 -17 -16 -62 -35 -98 -19 -36 -35 -72 -35 -79 1 -7 8 1 16 17 9 17 28 48 43 69 22 33 26 50 26 110 0 60 -5 82 -33 141 -18 38 -59 106 -91 150 -74 102 -80 114 -96 188 -11 51 -14 56 -14 26z"/>
<path d="M5164 3320 c3 -19 8 -53 11 -74 8 -49 43 -121 88 -183 49 -68 76 -124 97 -206 22 -85 26 -61 6 34 -16 74 -42 131 -91 199 -47 65 -73 121 -89 191 -16 68 -31 94 -22 39z"/>
<path d="M5496 3294 c-19 -142 1 -225 96 -399 39 -71 79 -152 89 -180 10 -28 18 -40 19 -29 0 35 -26 101 -99 244 -78 154 -93 206 -93 325 -1 47 -2 85 -3 85 -1 0 -5 -21 -9 -46z"/>
<path d="M6592 4768 c-15 -15 -17 -241 -2 -269 10 -18 26 -19 448 -19 327 0 441 3 450 12 8 8 12 53 12 138 0 85 -4 130 -12 138 -17 17 -879 17 -896 0z m268 -138 l0 -120 -120 0 -120 0 0 120 0 120 120 0 120 0 0 -120z m325 0 l0 -115 -142 -3 -143 -3 0 121 0 121 143 -3 142 -3 0 -115z m280 0 l0 -115 -120 0 -120 0 -3 118 -3 118 123 -3 123 -3 0 -115z"/>
</g>
</svg>